<?xml version="1.0" standalone="no"?>
<!DOCTYPE svg PUBLIC "-//W3C//DTD SVG 20010904//EN"
 "http://www.w3.org/TR/2001/REC-SVG-20010904/DTD/svg10.dtd">
<svg version="1.0" xmlns="http://www.w3.org/2000/svg"
 width="225.000000pt" height="225.000000pt" viewBox="0 0 225.000000 225.000000"
 preserveAspectRatio="xMidYMid meet">
<metadata>
Created by potrace 1.16, written by Peter Selinger 2001-2019
</metadata>
<g transform="translate(0.000000,225.000000) scale(0.100000,-0.100000)"
fill="#000000" stroke="none">
<path d="M1920 2012 c-47 -27 -141 -80 -210 -119 -69 -39 -240 -136 -380 -215
-140 -80 -358 -203 -485 -275 -126 -71 -323 -182 -437 -247 -113 -64 -208
-123 -211 -130 -13 -34 -4 -39 373 -176 58 -20 116 -42 130 -48 22 -9 35 -41
109 -258 123 -364 119 -354 145 -354 23 0 25 3 236 288 46 61 87 112 91 112 4
0 97 -39 206 -86 254 -111 238 -105 257 -91 12 9 36 121 91 417 41 223 90 488
109 590 120 641 119 633 81 638 -11 1 -58 -19 -105 -46z m15 -238 c-17 -95
-75 -408 -145 -784 -28 -151 -60 -322 -70 -379 -10 -57 -21 -105 -24 -108 -6
-6 -586 239 -586 247 0 3 58 82 128 175 528 703 705 936 708 932 2 -2 -3 -39
-11 -83z m-281 -42 c-55 -53 -185 -178 -290 -277 -190 -181 -307 -293 -505
-483 -59 -56 -112 -102 -118 -102 -7 0 -53 15 -104 34 -51 19 -136 51 -190 70
-121 44 -123 45 -100 61 10 7 295 169 633 360 338 192 649 368 690 391 41 24
77 43 80 43 3 0 -40 -43 -96 -97z m-262 -479 c-168 -225 -323 -430 -343 -457
-25 -33 -40 -66 -47 -105 -6 -31 -21 -114 -33 -184 -13 -70 -26 -122 -29 -115
-4 7 -38 105 -75 217 l-69 205 80 75 c44 42 201 191 349 331 148 140 312 296
365 347 52 51 98 93 102 93 4 0 -131 -183 -300 -407z m-272 -593 c22 -11 46
-20 54 -20 8 0 18 -5 21 -10 6 -10 -153 -239 -166 -240 -4 0 4 60 17 133 13
72 24 138 24 145 0 16 4 15 50 -8z"/>
</g>
</svg>
